<svg fill="#ffffff" version="1.1" id="Capa_1" xmlns="http://www.w3.org/2000/svg" xmlns:xlink="http://www.w3.org/1999/xlink" viewBox="0 0 49.269 49.269" xml:space="preserve" stroke="#ffffff"><g id="SVGRepo_bgCarrier" stroke-width="0"></g><g id="SVGRepo_tracerCarrier" stroke-linecap="round" stroke-linejoin="round"></g><g id="SVGRepo_iconCarrier"> <g> <g> <path d="M14.036,40.951c-1.646,0-2.984,1.34-2.984,2.985c0,1.646,1.339,2.985,2.984,2.985c1.646,0,2.985-1.339,2.985-2.985 C17.021,42.291,15.682,40.951,14.036,40.951z M14.036,45.923c-1.094,0-1.984-0.892-1.984-1.985s0.891-1.984,1.984-1.984 c1.095,0,1.985,0.891,1.985,1.984S15.131,45.923,14.036,45.923z"></path> <path d="M26.128,14.618c-2.564,1.907-4.035,4.826-4.035,8.008c0,3.18,1.471,6.098,4.035,8.005c0,0,0.001,0,0.002,0.001 c1.738,1.291,3.793,1.976,5.943,1.976c5.504,0,9.981-4.479,9.981-9.98c0-5.504-4.479-9.981-9.981-9.981 c-2.149,0-4.204,0.683-5.942,1.972C26.13,14.617,26.129,14.617,26.128,14.618z M41.054,22.626c0,4.952-4.029,8.979-8.981,8.979 c-1.933,0-3.78-0.615-5.346-1.775c-0.001-0.002-0.001-0.002-0.003-0.002c-2.308-1.717-3.632-4.342-3.632-7.202 c0-2.862,1.324-5.488,3.632-7.205c0.002,0,0.002-0.001,0.003-0.002c1.563-1.16,3.411-1.774,5.346-1.774 C37.025,13.645,41.054,17.674,41.054,22.626z"></path> <path d="M26.925,48.769V35.045c0.688,0.287,1.381,0.533,2.078,0.699v1.076c0,1.021,0.83,1.854,1.853,1.854h2.435 c1.021,0,1.853-0.831,1.853-1.854v-1.069c1.431-0.333,2.786-0.896,4.038-1.677l0.76,0.762c0.725,0.721,1.9,0.722,2.621-0.001 l1.722-1.722c0.722-0.721,0.722-1.896,0-2.623l-0.759-0.756c0.779-1.254,1.344-2.608,1.676-4.039h1.069 c1.022,0,1.854-0.832,1.854-1.854v-2.432c0-0.496-0.193-0.963-0.546-1.313c-0.35-0.349-0.813-0.541-1.305-0.541 c-0.002,0-0.003,0-0.005,0h-1.076c-0.337-1.445-0.896-2.801-1.67-4.038l0.76-0.76c0.721-0.721,0.721-1.896,0-2.623l-1.721-1.717 c-0.35-0.352-0.812-0.545-1.309-0.546c-0.002,0-0.002,0-0.002,0c-0.496,0-0.963,0.193-1.313,0.545l-0.757,0.758 C37.936,10.4,36.58,9.84,35.14,9.505V8.428c0-1.022-0.83-1.854-1.852-1.854h-2.435c-1.021,0-1.853,0.832-1.853,1.854V9.5 c-0.695,0.163-1.389,0.412-2.078,0.701V0.5c0-0.276-0.224-0.5-0.5-0.5H1.644c-0.276,0-0.5,0.224-0.5,0.5v6.573v31.103v10.593 c0,0.276,0.224,0.5,0.5,0.5h24.779C26.703,49.269,26.925,49.045,26.925,48.769z M2.146,7.574h23.78v3.075 c-0.353,0.179-0.676,0.353-0.961,0.527l-0.761-0.759c-0.349-0.352-0.813-0.545-1.309-0.546c-0.001,0-0.002,0-0.002,0 c-0.496,0-0.962,0.193-1.313,0.545l-1.719,1.718c-0.352,0.353-0.545,0.82-0.544,1.316c0.001,0.494,0.194,0.959,0.543,1.307 l0.758,0.76c-0.778,1.251-1.34,2.606-1.674,4.038h-1.067c-0.001,0-0.003,0-0.005,0c-0.493,0-0.957,0.192-1.308,0.541 c-0.352,0.351-0.545,0.817-0.545,1.313v2.432c0,1.022,0.833,1.854,1.856,1.854h1.075c0.334,1.438,0.895,2.791,1.67,4.037 l-0.76,0.758c-0.351,0.353-0.544,0.817-0.544,1.313c0,0.495,0.193,0.961,0.544,1.312l1.72,1.721 c0.362,0.359,0.837,0.541,1.312,0.541c0.475,0,0.949-0.182,1.31-0.542l0.762-0.761c0.287,0.174,0.61,0.349,0.961,0.525v3.075 H2.145L2.146,7.574L2.146,7.574z M29.601,10.393c0.234-0.047,0.402-0.252,0.402-0.49V8.428c0-0.471,0.383-0.854,0.853-0.854h2.435 c0.469,0,0.853,0.384,0.853,0.854v1.48c0,0.238,0.168,0.443,0.401,0.49c1.596,0.321,3.086,0.938,4.43,1.83 c0.197,0.133,0.463,0.106,0.631-0.063l1.042-1.043c0.162-0.163,0.377-0.252,0.604-0.252c0,0,0,0,0.002,0 c0.227,0,0.439,0.089,0.602,0.252l1.721,1.717c0.332,0.335,0.333,0.878,0.001,1.21l-1.045,1.045 c-0.169,0.169-0.194,0.433-0.063,0.631c0.891,1.333,1.508,2.823,1.832,4.429c0.049,0.232,0.252,0.4,0.49,0.4h1.479 c0.001,0,0.002,0,0.003,0c0.227,0,0.438,0.088,0.6,0.249c0.162,0.162,0.252,0.377,0.252,0.605v2.432 c0,0.471-0.384,0.854-0.854,0.854h-1.474c-0.238,0-0.442,0.168-0.49,0.401c-0.316,1.585-0.937,3.075-1.838,4.429 c-0.133,0.198-0.104,0.463,0.063,0.633l1.044,1.039c0.332,0.336,0.333,0.879,0.001,1.211l-1.722,1.721 c-0.332,0.334-0.875,0.332-1.207,0l-1.042-1.045c-0.168-0.168-0.435-0.195-0.632-0.063c-1.354,0.9-2.846,1.519-4.43,1.837 c-0.233,0.047-0.401,0.252-0.401,0.49v1.475c0,0.469-0.384,0.853-0.853,0.853h-2.435c-0.47,0-0.853-0.384-0.853-0.853v-1.479 c0-0.238-0.168-0.442-0.4-0.49c-0.992-0.2-1.986-0.54-2.958-1.008c0,0,0-0.001-0.001-0.001c-0.588-0.284-1.055-0.546-1.471-0.823 c-0.196-0.133-0.462-0.106-0.631,0.063l-1.046,1.045c-0.332,0.332-0.874,0.332-1.208,0l-1.72-1.721 c-0.161-0.162-0.25-0.375-0.25-0.604s0.089-0.443,0.25-0.605l1.046-1.041c0.169-0.17,0.196-0.435,0.063-0.633 c-0.896-1.345-1.512-2.835-1.832-4.429c-0.047-0.233-0.252-0.401-0.49-0.401h-1.477c-0.473,0-0.856-0.384-0.856-0.854v-2.432 c0-0.229,0.089-0.443,0.252-0.605c0.161-0.16,0.374-0.249,0.603-0.249c0,0,0.001,0,0.002,0h1.472c0.238,0,0.443-0.168,0.49-0.401 c0.319-1.587,0.937-3.076,1.835-4.429c0.132-0.197,0.106-0.461-0.062-0.63l-1.044-1.046c-0.161-0.16-0.25-0.373-0.25-0.601 c-0.001-0.229,0.089-0.444,0.251-0.607l1.719-1.718c0.162-0.163,0.377-0.252,0.605-0.252c0,0,0,0,0.001,0 c0.227,0,0.44,0.089,0.602,0.253l1.046,1.043c0.169,0.167,0.432,0.194,0.631,0.062c0.411-0.273,0.878-0.535,1.468-0.823 c0.002-0.001,0.003,0,0.004-0.001C27.621,10.93,28.616,10.59,29.601,10.393z M25.926,1v5.573H2.146V1H25.926z M2.146,48.269 v-9.593h23.78v9.593H2.146z"></path> <path d="M11.007,4.396h6.061c0.276,0,0.5-0.224,0.5-0.5c0-0.276-0.224-0.5-0.5-0.5h-6.061c-0.276,0-0.5,0.224-0.5,0.5 C10.507,4.173,10.731,4.396,11.007,4.396z"></path> <path d="M26.388,22.624c0,3.272,2.662,5.935,5.935,5.935s5.937-2.662,5.937-5.935s-2.664-5.935-5.937-5.935 C29.05,16.69,26.388,19.352,26.388,22.624z M32.323,17.69c2.722,0,4.937,2.214,4.937,4.935c0,2.721-2.215,4.935-4.937,4.935 c-2.721,0-4.935-2.214-4.935-4.935C27.388,19.904,29.602,17.69,32.323,17.69z"></path> </g> </g> </g></svg>